# xmcd
#
# Track frame offsets:
#	150
#	13326
#	30296
#	42428
#	58147
#	72283
#	84613
#	104543
#	119583
#	135108
#	152966
#	168096
#	177136
#	196011
#	210016
#	228381
#	244058
#
# Disc length: 3464 seconds
#
# Revision: 0
# Processed by: cddbd v1.5.2PL0 Copyright (c) Steve Scherf et al.
# Submitted via: dBpowerAMP V4.0
#
DISCID=d90d8611
DTITLE=Various Artist - OLON Country Special
DYEAR=1999
DGENRE=Country
TTITLE0=Major Dundee - Sexy Country
TTITLE1=JW Roy - Deeper shades
TTITLE2=Jany Szabo - Lonely hearts
TTITLE3=Except 2 - Lost love
TTITLE4=Toni Willé - Mama
TTITLE5=Savannah - Rockin' the boat
TTITLE6=Rene Wingelaar - The ramblin' dreamer
TTITLE7=Wendell A Morrison - Who's he
TTITLE8=Busted - When I'm walking
TTITLE9=Sandra Vanreys - The end of the line
TTITLE10=Mark Lavender - Maybe manana
TTITLE11=West Virginian Railroad - Deep in the country
TTITLE12=Haske - It's all temporary
TTITLE13=Frank Jansen - What's so good about goodbye
TTITLE14=Jony de Boer - Mama's on the road again
TTITLE15=Bennie Jolink - Just like yesterday
TTITLE16=Wendy Ann - Someday I'll see you again
EXTD=OLON Country Special 1999
EXTT0=
EXTT1=
EXTT2=
EXTT3=
EXTT4=
EXTT5=
EXTT6=
EXTT7=
EXTT8=
EXTT9=
EXTT10=
EXTT11=
EXTT12=
EXTT13=
EXTT14=
EXTT15=
EXTT16=
PLAYORDER=
